<svg width="125" height="126" viewBox="0 0 125 126" fill="none"
    xmlns="http://www.w3.org/2000/svg">
    <path d="M65.5229 1H59.4784V126H65.5229V1Z" fill="currentColor"/>
    <path d="M65.5229 1H59.4784V126H65.5229V1Z" fill="currentColor"/>
    <path d="M125 60.4778H0V66.5223H125V60.4778Z" fill="currentColor"/>
    <path d="M125 60.4778H0V66.5223H125V60.4778Z" fill="currentColor"/>
    <path d="M20.4323 17.165L16.1583 21.4391L104.546 109.827L108.82 105.552L20.4323 17.165Z" fill="currentColor"/>
    <path d="M20.4323 17.165L16.1583 21.4391L104.546 109.827L108.82 105.552L20.4323 17.165Z" fill="currentColor"/>
    <path d="M104.546 17.1638L16.1583 105.551L20.4323 109.825L108.82 21.4379L104.546 17.1638Z" fill="currentColor"/>
    <path d="M104.546 17.1638L16.1583 105.551L20.4323 109.825L108.82 21.4379L104.546 17.1638Z" fill="currentColor"/>
    <path d="M5.77668 37.1399L3.49609 42.7377L119.259 89.9006L121.539 84.3024L5.77668 37.1399Z" fill="currentColor"/>
    <path d="M5.77668 37.1399L3.49609 42.7377L119.259 89.9006L121.539 84.3024L5.77668 37.1399Z" fill="currentColor"/>
    <path d="M83.3021 4.50488L36.1396 120.267L41.7374 122.548L88.8998 6.78547L83.3021 4.50488Z" fill="currentColor"/>
    <path d="M83.3021 4.50488L36.1396 120.267L41.7374 122.548L88.8998 6.78547L83.3021 4.50488Z" fill="currentColor"/>
    <path d="M119.396 37.3503L3.43384 84.0253L5.69084 89.6328L121.653 42.9578L119.396 37.3503Z" fill="currentColor"/>
    <path d="M119.396 37.3503L3.43384 84.0253L5.69084 89.6328L121.653 42.9578L119.396 37.3503Z" fill="currentColor"/>
    <path d="M41.9322 4.43604L36.3247 6.69245L82.9871 122.655L88.5944 120.399L41.9322 4.43604Z" fill="currentColor"/>
    <path d="M41.9322 4.43604L36.3247 6.69245L82.9871 122.655L88.5944 120.399L41.9322 4.43604Z" fill="currentColor"/>
</svg>
