<svg width="125" height="126" viewBox="0 0 125 126" fill="none" xmlns="http://www.w3.org/2000/svg">
<path d="M31.8 8.34033V31.0403H62.1V0.340332C51.1 0.340332 40.7 3.34033 31.8 8.34033Z" fill="#0F0F0F"/>
<path d="M0.0999756 62.3403H30.8V32.0403H8.09998C3.09998 40.9403 0.0999756 51.3403 0.0999756 62.3403Z" fill="#0F0F0F"/>
<path d="M62.1 32.0403H31.8V62.3403H62.1V32.0403Z" fill="#0F0F0F"/>
<path d="M62.1 63.3403H31.8V93.6404H62.1V63.3403Z" fill="#0F0F0F"/>
<path d="M94.3 31.0404H116.4C111 21.9404 103.4 14.3404 94.3 8.94043V31.0404Z" fill="#0F0F0F"/>
<path d="M63.1 0.340332V31.0403H93.4V8.34033C84.4 3.34033 74.1 0.340332 63.1 0.340332Z" fill="#0F0F0F"/>
<path d="M30.8 63.3403H0.0999756C0.199976 74.3403 3.09997 84.6404 8.19997 93.6404H30.8V63.3403Z" fill="#0F0F0F"/>
<path d="M93.4 32.0403H63.1V62.3403H93.4V32.0403Z" fill="#0F0F0F"/>
<path d="M62.1 125.34V94.5403H31.8V117.24C40.7 122.24 51.1 125.24 62.1 125.34Z" fill="#0F0F0F"/>
<path d="M93.3 94.5403H63V125.24C74 125.14 84.3 122.24 93.3 117.14V94.5403Z" fill="#0F0F0F"/>
<path d="M30.8 31.0404V8.94043C21.7 14.3404 14.1 21.9404 8.70001 31.0404H30.8Z" fill="#0F0F0F"/>
<path d="M30.8 94.5403H8.70001C14.1 103.64 21.7 111.24 30.8 116.64V94.5403Z" fill="#0F0F0F"/>
<path d="M94.3 94.5403V116.64C103.4 111.24 111 103.64 116.4 94.5403H94.3Z" fill="#0F0F0F"/>
<path d="M93.4 63.3403H63.1V93.6404H93.4V63.3403Z" fill="#0F0F0F"/>
<path d="M125 63.3403H94.3V93.5403H117C122 84.6403 125 74.3403 125 63.3403Z" fill="#0F0F0F"/>
<path d="M94.3 32.0403V62.3403H125C124.9 51.3403 122 41.0403 116.9 32.0403H94.3Z" fill="#0F0F0F"/>
</svg>
