<svg width="137" height="130" viewBox="0 0 137 130" fill="none" xmlns="http://www.w3.org/2000/svg">
<path d="M27.8184 40.5404C29.5184 19.6404 47.0184 3.14038 68.4184 3.14038C90.9184 3.14038 109.118 21.3404 109.118 43.8404C109.118 58.1404 101.818 70.6404 90.7184 77.9404" stroke="black" stroke-width="5.5" stroke-linecap="round" stroke-linejoin="round"/>
<path d="M62.3184 122.04C43.6184 131.64 20.3184 125.34 9.1184 107.14C-2.7816 87.9404 3.2184 62.8405 22.4184 51.0405C34.9184 43.3405 49.9184 43.2405 62.1184 49.3405" stroke="black" stroke-width="5.5" stroke-linecap="round" stroke-linejoin="round"/>
<path d="M73.9184 58.3403C75.6184 60.1403 77.1184 62.1403 78.4184 64.3403C88.1184 80.1403 85.8184 99.8404 74.0184 112.94" stroke="black" stroke-width="5.5" stroke-linecap="round" stroke-linejoin="round"/>
<path d="M115.618 51.5403C133.018 63.0403 139.118 86.1403 129.118 104.84C118.418 124.64 93.7184 132.14 73.9184 121.44C61.3184 114.64 53.7184 102.14 52.6184 88.8403" stroke="black" stroke-width="5.5" stroke-linecap="round" stroke-linejoin="round"/>
<path d="M54.0184 74.1405C54.8184 71.4405 55.9184 68.8405 57.2184 66.3405C66.0184 49.9405 84.5184 42.0405 101.818 45.8405" stroke="black" stroke-width="5.5" stroke-linecap="round" stroke-linejoin="round"/>
<path d="M77.1184 83.7404C74.3184 84.3404 71.4184 84.6404 68.5184 84.6404C50.0184 84.6404 34.4184 72.3403 29.4184 55.3403" stroke="black" stroke-width="5.5" stroke-linecap="round" stroke-linejoin="round"/>
</svg>
