<svg width="125" height="126" viewBox="0 0 125 126" fill="none" xmlns="http://www.w3.org/2000/svg">
<path d="M63.4716 0.832764H61.6211V46.5397H63.4716V0.832764Z" fill="currentColor"/>
<path d="M63.4716 80.0334H61.6211V125.74H63.4716V80.0334Z" fill="currentColor"/>
<path d="M45.7994 62.3613H0.0925903V64.2118H45.7994V62.3613Z" fill="currentColor"/>
<path d="M125 62.3613H79.2933V64.2118H125V62.3613Z" fill="currentColor"/>
<path d="M62.5465 106.125C38.8603 106.125 19.6153 86.88 19.6153 63.1939C19.6153 39.5077 38.8603 20.2627 62.5465 20.2627C86.2326 20.2627 105.478 39.5077 105.478 63.1939C105.478 86.88 86.1401 106.125 62.5465 106.125ZM62.5465 22.2057C39.8781 22.2057 21.4658 40.618 21.4658 63.2864C21.4658 85.9548 39.8781 104.367 62.5465 104.367C85.2149 104.367 103.627 85.9548 103.627 63.2864C103.627 40.618 85.1224 22.2057 62.5465 22.2057Z" fill="currentColor"/>
<path d="M63.4716 62.3611H79.2932C78.8306 53.8489 71.9838 47.0022 63.4716 46.5396V62.3611Z" fill="currentColor"/>
<path d="M61.6211 62.3611V46.5396C53.1089 47.0022 46.2621 53.8489 45.7994 62.3611H61.6211Z" fill="currentColor"/>
<path d="M61.6211 64.2117H45.7994C46.2621 72.7239 53.1089 79.5707 61.6211 80.0333V64.2117Z" fill="currentColor"/>
<path d="M63.4716 64.2117V80.0333C71.9838 79.5707 78.8306 72.7239 79.2932 64.2117H63.4716Z" fill="currentColor"/>
</svg>
