<svg width="125" height="138" viewBox="0 0 125 138" fill="none" xmlns="http://www.w3.org/2000/svg">
<path d="M62.4501 44.9048C74.701 44.9048 84.6323 34.9735 84.6323 22.7225C84.6323 10.4716 74.701 0.540283 62.4501 0.540283C50.1991 0.540283 40.2678 10.4716 40.2678 22.7225C40.2678 34.9735 50.1991 44.9048 62.4501 44.9048Z" fill="#0F0F0F"/>
<path d="M62.4501 137.93C74.701 137.93 84.6323 127.999 84.6323 115.748C84.6323 103.497 74.701 93.5659 62.4501 93.5659C50.1991 93.5659 40.2678 103.497 40.2678 115.748C40.2678 127.999 50.1991 137.93 62.4501 137.93Z" fill="#0F0F0F"/>
<path d="M65.9473 22.7227H58.9529V115.748H65.9473V22.7227Z" fill="#0F0F0F"/>
<path d="M100.995 42.8876L20.4344 89.4004L23.9317 95.4575L104.492 48.9448L100.995 42.8876Z" fill="#0F0F0F"/>
<path d="M23.9368 43.0068L20.4396 49.064L101 95.5768L104.497 89.5196L23.9368 43.0068Z" fill="#0F0F0F"/>
<path d="M22.1822 114.649C34.4332 114.649 44.3645 104.718 44.3645 92.4669C44.3645 80.216 34.4332 70.2847 22.1822 70.2847C9.93132 70.2847 0 80.216 0 92.4669C0 104.718 9.93132 114.649 22.1822 114.649Z" fill="#0F0F0F"/>
<path d="M102.818 68.1863C115.069 68.1863 125 58.255 125 46.004C125 33.7531 115.069 23.8218 102.818 23.8218C90.5668 23.8218 80.6355 33.7531 80.6355 46.004C80.6355 58.255 90.5668 68.1863 102.818 68.1863Z" fill="#0F0F0F"/>
<path d="M102.818 114.649C115.069 114.649 125 104.718 125 92.4669C125 80.216 115.069 70.2847 102.818 70.2847C90.5668 70.2847 80.6355 80.216 80.6355 92.4669C80.6355 104.718 90.5668 114.649 102.818 114.649Z" fill="#0F0F0F"/>
<path d="M22.1822 68.1863C34.4332 68.1863 44.3645 58.255 44.3645 46.004C44.3645 33.7531 34.4332 23.8218 22.1822 23.8218C9.93132 23.8218 0 33.7531 0 46.004C0 58.255 9.93132 68.1863 22.1822 68.1863Z" fill="#0F0F0F"/>
</svg>
