<svg width="125" height="126" viewBox="0 0 125 126" fill="none" xmlns="http://www.w3.org/2000/svg">
<path d="M62.5 19.9403C86.1 19.9403 105.4 39.1403 105.4 62.8403C105.4 86.5403 86.2 105.74 62.5 105.74C38.8 105.74 19.6 86.5403 19.6 62.8403C19.6 39.1403 38.8 19.9403 62.5 19.9403ZM62.5 0.340332C28 0.340332 0 28.3403 0 62.8403C0 97.3403 28 125.34 62.5 125.34C97 125.34 125 97.3403 125 62.8403C125 28.3403 97 0.340332 62.5 0.340332Z" fill="#0F0F0F"/>
<path d="M62.5 0.340332C28 0.340332 0 28.3403 0 62.8403H62.5V0.340332Z" fill="#0F0F0F"/>
<path d="M62.5 125.24C97 125.24 125 97.2404 125 62.7404H62.5V125.24Z" fill="#0F0F0F"/>
</svg>
