<svg width="125" height="126" viewBox="0 0 125 126" fill="none" xmlns="http://www.w3.org/2000/svg">
<path d="M0 33.1V92C0 110.3 14.7881 125.1 33.0735 125.1H91.9265C110.212 125.1 125 110.3 125 92V33.1C125 14.8 110.212 0 91.9265 0H33.0735C14.7881 0.1 0 14.9 0 33.1ZM33.1734 116.8C19.3844 116.8 8.1934 105.6 8.1934 91.8C8.1934 78 19.3844 66.8 33.1734 66.8C46.9624 66.8 58.1534 78 58.1534 91.8C58.1534 105.6 46.9624 116.8 33.1734 116.8ZM33.1734 58.3C19.3844 58.3 8.1934 47.1 8.1934 33.3C8.1934 19.5 19.3844 8.3 33.1734 8.3C46.9624 8.3 58.1534 19.5 58.1534 33.3C58.1534 47.1 46.9624 58.3 33.1734 58.3ZM91.6267 116.8C77.8377 116.8 66.6466 105.6 66.6466 91.8C66.6466 78 77.8377 66.8 91.6267 66.8C105.416 66.8 116.607 78 116.607 91.8C116.607 105.6 105.416 116.8 91.6267 116.8ZM91.6267 58.3C77.8377 58.3 66.6466 47.1 66.6466 33.3C66.6466 19.5 77.8377 8.3 91.6267 8.3C105.416 8.3 116.607 19.5 116.607 33.3C116.607 47.1 105.416 58.3 91.6267 58.3Z" fill="#0F0F0F"/>
</svg>
