<svg width="126" height="126" viewBox="0 0 126 126" fill="none" xmlns="http://www.w3.org/2000/svg">
<path d="M63 122C95.5848 122 122 95.5848 122 63C122 30.4152 95.5848 4 63 4C30.4152 4 4 30.4152 4 63C4 95.5848 30.4152 122 63 122Z" stroke="black" stroke-width="7" stroke-miterlimit="10"/>
<path d="M63 4.09998V122" stroke="black" stroke-width="7" stroke-miterlimit="10"/>
<path d="M63 122C79.2924 122 92.5 95.5848 92.5 63C92.5 30.4152 79.2924 4 63 4C46.7076 4 33.5 30.4152 33.5 63C33.5 95.5848 46.7076 122 63 122Z" stroke="black" stroke-width="7" stroke-miterlimit="10"/>
<path d="M4.09998 63H122" stroke="black" stroke-width="7" stroke-miterlimit="10"/>
</svg>
