<svg width="125" height="126" viewBox="0 0 125 126" fill="none" xmlns="http://www.w3.org/2000/svg">
<path d="M40.4999 29.6402V0.740234H31.5V29.6402L36 34.1402L40.4999 29.6402Z" fill="#0F0F0F"/>
<path d="M43.2 41.2402H81.9L86.4 36.7402L81.9 32.2402H43.2L38.7 36.7402L43.2 41.2402Z" fill="#0F0F0F"/>
<path d="M93.6 29.6402V0.740234H84.6V29.6402L89.1 34.1402L93.6 29.6402Z" fill="#0F0F0F"/>
<path d="M28.9 32.2402H0V41.2402H28.9L33.4 36.7402L28.9 32.2402Z" fill="#0F0F0F"/>
<path d="M31.5 96.9402V125.74H40.4999V96.9402L36 92.4402L31.5 96.9402Z" fill="#0F0F0F"/>
<path d="M96.2 94.3403H125V85.3403H96.2L91.7 89.8403L96.2 94.3403Z" fill="#0F0F0F"/>
<path d="M84.6 43.9402V82.6401L89.1 87.1401L93.6 82.6401V43.9402L89.1 39.4402L84.6 43.9402Z" fill="#0F0F0F"/>
<path d="M125 32.2402H96.2L91.7 36.7402L96.2 41.2402H125V32.2402Z" fill="#0F0F0F"/>
<path d="M28.9 85.3403H0V94.3403H28.9L33.4 89.8403L28.9 85.3403Z" fill="#0F0F0F"/>
<path d="M40.4999 82.6401V43.9402L36 39.4402L31.5 43.9402V82.6401L36 87.1401L40.4999 82.6401Z" fill="#0F0F0F"/>
<path d="M81.9 85.3403H43.2L38.7 89.8403L43.2 94.3403H81.9L86.4 89.8403L81.9 85.3403Z" fill="#0F0F0F"/>
<path d="M84.6 96.9402V125.74H93.6V96.9402L89.1 92.4402L84.6 96.9402Z" fill="#0F0F0F"/>
</svg>
