<svg width="125" height="128" viewBox="0 0 125 128" fill="none" xmlns="http://www.w3.org/2000/svg">
<path d="M124.769 89.2106L106.619 51.5226C105.693 49.578 107.453 47.4482 109.49 47.9112L118.379 49.9484C119.768 50.2262 121.157 49.3928 121.435 48.0038L124.121 36.4289C124.398 35.0399 123.565 33.6509 122.176 33.3731L81.3396 24.0206C79.2099 23.5576 78.6543 20.8722 80.321 19.4832L87.4512 13.8346C88.5624 12.9086 88.7476 11.3344 87.8216 10.2232L80.4137 0.963292C79.4877 -0.147902 77.9135 -0.3331 76.8023 0.592894L44.1146 26.7059C42.4479 28.0949 39.9477 26.8911 39.9477 24.6688V15.5014C39.9477 14.1124 38.8365 12.9086 37.3549 12.9086H25.5022C24.1132 12.9086 22.9094 14.0198 22.9094 15.5014V57.3564C22.9094 59.4862 20.4092 60.69 18.7424 59.3936L11.6122 53.745C10.501 52.819 8.92684 53.0042 8.00085 54.1154L0.592891 63.3753C-0.333104 64.4865 -0.147897 66.0607 0.963297 66.9867L33.6509 93.0998C35.3177 94.4888 34.7621 97.1741 32.6323 97.6371L23.7428 99.6743C22.3538 99.9521 21.5204 101.341 21.7982 102.73L24.4836 114.305C24.7614 115.694 26.1504 116.527 27.5393 116.25L68.3757 106.897C70.5055 106.434 72.1723 108.564 71.2463 110.508L67.2645 118.75C66.6163 120.046 67.1719 121.528 68.4683 122.176L79.2098 127.362C80.5062 128.01 81.9878 127.454 82.636 126.158L100.786 88.4698C101.712 86.5252 104.49 86.5252 105.416 88.4698L109.397 96.7111C110.045 98.0075 111.527 98.5631 112.823 97.9149L123.565 92.7294C124.861 91.9886 125.324 90.507 124.769 89.2106ZM86.7104 78.2839L76.8949 98.7483C75.8763 100.971 72.6353 100.6 72.0797 98.1927L70.5055 91.5256C70.2277 90.1366 68.8387 89.3032 67.4497 89.581L45.3185 94.674C42.9109 95.2296 41.2441 92.4516 42.7257 90.5996L46.9852 85.2288C47.9112 84.1176 47.726 82.5434 46.6148 81.6174L28.8357 67.4497C26.8911 65.9681 28.0023 62.8197 30.4099 62.8197H37.2623C38.6513 62.8197 39.8551 61.7085 39.8551 60.227V37.5401C39.8551 35.1325 42.9108 34.0213 44.485 35.9659L48.8372 41.2441C49.7632 42.3553 51.3374 42.5405 52.4486 41.6145L70.1351 27.5393C72.0797 26.0578 74.7651 27.7245 74.2095 30.1321L72.6353 36.7993C72.3575 38.1883 73.1909 39.5773 74.5799 39.8551L96.7112 44.948C99.1188 45.5036 99.4891 48.7446 97.2667 49.7632L91.0626 52.7264C89.7662 53.3746 89.2106 54.8562 89.8588 56.1526L99.6743 76.6171C100.693 78.8395 98.4706 81.1544 96.2482 80.0432L90.044 77.0801C88.8402 76.5245 87.3586 76.9875 86.7104 78.2839Z" fill="#0F0F0F"/>
</svg>
