<svg width="125" height="121" viewBox="0 0 125 121" fill="none" xmlns="http://www.w3.org/2000/svg">
<path d="M60 2H45.3C44.7 2 44.3 1.5 44.3 1C44.3 0.5 44.8 0 45.3 0H60C60.6 0 61 0.5 61 1C61 1.5 60.6 2 60 2Z" fill="#0F0F0F"/>
<path d="M60 6.40002H34.3C33.7 6.40002 33.3 5.90002 33.3 5.40002C33.3 4.80002 33.8 4.40002 34.3 4.40002H60.1C60.7 4.40002 61.1 4.90002 61.1 5.40002C61 5.90002 60.6 6.40002 60 6.40002Z" fill="#0F0F0F"/>
<path d="M60 10.7H26.8C26.2 10.7 25.8 10.2 25.8 9.69995C25.8 9.19995 26.3 8.69995 26.8 8.69995H60C60.6 8.69995 61 9.19995 61 9.69995C61 10.2 60.6 10.7 60 10.7Z" fill="#0F0F0F"/>
<path d="M60 15.1H21.6C21 15.1 20.6 14.6 20.6 14.1C20.6 13.5 21.1 13.1 21.6 13.1H60.1C60.7 13.1 61.1 13.6 61.1 14.1C61 14.7 60.6 15.1 60 15.1Z" fill="#0F0F0F"/>
<path d="M60 19.5H17C16.4 19.5 16 19 16 18.5C16 18 16.5 17.5 17 17.5H60C60.6 17.5 61 18 61 18.5C61 19 60.6 19.5 60 19.5Z" fill="#0F0F0F"/>
<path d="M60 23.9H13.2C12.6 23.9 12.2 23.4 12.2 22.9C12.2 22.3 12.7 21.9 13.2 21.9H60.1C60.7 21.9 61.1 22.4 61.1 22.9C61 23.4 60.6 23.9 60 23.9Z" fill="#0F0F0F"/>
<path d="M60 28.2H10.4C9.80002 28.2 9.40002 27.7 9.40002 27.2C9.40002 26.6 9.90002 26.2 10.4 26.2H60C60.6 26.2 61 26.7 61 27.2C61 27.8 60.6 28.2 60 28.2Z" fill="#0F0F0F"/>
<path d="M60 32.6H7.90002C7.30002 32.6 6.90002 32.1 6.90002 31.6C6.90002 31 7.40002 30.6 7.90002 30.6H60C60.6 30.6 61 31.1 61 31.6C61 32.2 60.6 32.6 60 32.6Z" fill="#0F0F0F"/>
<path d="M60 37H5.70001C5.10001 37 4.70001 36.5 4.70001 36C4.70001 35.5 5.20001 35 5.70001 35H60.1C60.7 35 61.1 35.5 61.1 36C61.1 36.5 60.6 37 60 37Z" fill="#0F0F0F"/>
<path d="M60 41.4H3.79999C3.19999 41.4 2.79999 40.9 2.79999 40.4C2.79999 39.8 3.29999 39.4 3.79999 39.4H60C60.6 39.4 61 39.9 61 40.4C61 40.9 60.6 41.4 60 41.4Z" fill="#0F0F0F"/>
<path d="M60 45.7H2.5C1.9 45.7 1.5 45.2 1.5 44.7C1.5 44.2 2 43.7 2.5 43.7H60C60.6 43.7 61 44.2 61 44.7C61 45.2 60.6 45.7 60 45.7Z" fill="#0F0F0F"/>
<path d="M60 50.1H2.5C1.9 50.1 1.5 49.6 1.5 49.1C1.5 48.6 2 48.1 2.5 48.1H60C60.6 48.1 61 48.6 61 49.1C61 49.6 60.6 50.1 60 50.1Z" fill="#0F0F0F"/>
<path d="M60 54.5H1C0.4 54.5 0 54 0 53.5C0 52.9 0.5 52.5 1 52.5H60.1C60.7 52.5 61.1 53 61.1 53.5C61 54 60.6 54.5 60 54.5Z" fill="#0F0F0F"/>
<path d="M60 58.9H1C0.4 58.9 0 58.4 0 57.9C0 57.4 0.5 56.9 1 56.9H60.1C60.7 56.9 61.1 57.4 61.1 57.9C61.1 58.4 60.6 58.9 60 58.9Z" fill="#0F0F0F"/>
<path d="M60 63.2H1C0.4 63.2 0 62.7 0 62.2C0 61.7 0.5 61.2 1 61.2H60.1C60.7 61.2 61.1 61.7 61.1 62.2C61.1 62.7 60.6 63.2 60 63.2Z" fill="#0F0F0F"/>
<path d="M60 67.6H1C0.4 67.6 0 67.1 0 66.6C0 66 0.5 65.6 1 65.6H60.1C60.7 65.6 61.1 66.1 61.1 66.6C61 67.2 60.6 67.6 60 67.6Z" fill="#0F0F0F"/>
<path d="M60 72H2.5C1.9 72 1.5 71.5 1.5 71C1.5 70.5 2 70 2.5 70H60C60.6 70 61 70.5 61 71C61 71.5 60.6 72 60 72Z" fill="#0F0F0F"/>
<path d="M60 76.4H2.5C1.9 76.4 1.5 75.9 1.5 75.4C1.5 74.9 2 74.4 2.5 74.4H60C60.6 74.4 61 74.9 61 75.4C61 75.9 60.6 76.4 60 76.4Z" fill="#0F0F0F"/>
<path d="M60 80.7H3.79999C3.19999 80.7 2.79999 80.2 2.79999 79.7C2.79999 79.1 3.29999 78.7 3.79999 78.7H60C60.6 78.7 61 79.2 61 79.7C61 80.3 60.6 80.7 60 80.7Z" fill="#0F0F0F"/>
<path d="M60 85.1H5.70001C5.10001 85.1 4.70001 84.6 4.70001 84.1C4.70001 83.6 5.20001 83.1 5.70001 83.1H60.1C60.7 83.1 61.1 83.6 61.1 84.1C61.1 84.6 60.6 85.1 60 85.1Z" fill="#0F0F0F"/>
<path d="M60 89.5H7.90002C7.30002 89.5 6.90002 89 6.90002 88.5C6.90002 87.9 7.40002 87.5 7.90002 87.5H60C60.6 87.5 61 88 61 88.5C61 89 60.6 89.5 60 89.5Z" fill="#0F0F0F"/>
<path d="M60 93.9H10.4C9.80002 93.9 9.40002 93.4 9.40002 92.9C9.40002 92.3 9.90002 91.9 10.4 91.9H60C60.6 91.9 61 92.4 61 92.9C61 93.4 60.6 93.9 60 93.9Z" fill="#0F0F0F"/>
<path d="M60 98.3H13.2C12.6 98.3 12.2 97.8 12.2 97.3C12.2 96.7 12.7 96.3 13.2 96.3H60.1C60.7 96.3 61.1 96.8 61.1 97.3C61 97.8 60.6 98.3 60 98.3Z" fill="#0F0F0F"/>
<path d="M60 102.6H17C16.4 102.6 16 102.1 16 101.6C16 101 16.5 100.6 17 100.6H60C60.6 100.6 61 101.1 61 101.6C61 102.2 60.6 102.6 60 102.6Z" fill="#0F0F0F"/>
<path d="M60 107H21.6C21 107 20.6 106.5 20.6 106C20.6 105.4 21.1 105 21.6 105H60.1C60.7 105 61.1 105.5 61.1 106C61 106.6 60.6 107 60 107Z" fill="#0F0F0F"/>
<path d="M60 111.4H26.8C26.2 111.4 25.8 110.9 25.8 110.4C25.8 109.9 26.3 109.4 26.8 109.4H60C60.6 109.4 61 109.9 61 110.4C61 110.9 60.6 111.4 60 111.4Z" fill="#0F0F0F"/>
<path d="M60 115.8H34.3C33.7 115.8 33.3 115.3 33.3 114.8C33.3 114.2 33.8 113.8 34.3 113.8H60.1C60.7 113.8 61.1 114.3 61.1 114.8C61 115.3 60.6 115.8 60 115.8Z" fill="#0F0F0F"/>
<path d="M60 120.1H45.3C44.7 120.1 44.3 119.6 44.3 119.1C44.3 118.5 44.8 118.1 45.3 118.1H60C60.6 118.1 61 118.6 61 119.1C61 119.7 60.6 120.1 60 120.1Z" fill="#0F0F0F"/>
<path d="M79.6 120.1H64.9C64.3 120.1 63.9 119.6 63.9 119.1C63.9 118.5 64.4 118.1 64.9 118.1H79.6C80.2 118.1 80.6 118.6 80.6 119.1C80.6 119.7 80.1 120.1 79.6 120.1Z" fill="#0F0F0F"/>
<path d="M90.6 115.8H64.9C64.3 115.8 63.9 115.3 63.9 114.8C63.9 114.2 64.4 113.8 64.9 113.8H90.7C91.3 113.8 91.7 114.3 91.7 114.8C91.6 115.3 91.2 115.8 90.6 115.8Z" fill="#0F0F0F"/>
<path d="M98.1 111.4H64.9C64.3 111.4 63.9 110.9 63.9 110.4C63.9 109.9 64.4 109.4 64.9 109.4H98.1C98.7 109.4 99.1 109.9 99.1 110.4C99.1 110.9 98.7 111.4 98.1 111.4Z" fill="#0F0F0F"/>
<path d="M103.3 107H64.9C64.3 107 63.9 106.5 63.9 106C63.9 105.4 64.4 105 64.9 105H103.4C104 105 104.4 105.5 104.4 106C104.3 106.6 103.9 107 103.3 107Z" fill="#0F0F0F"/>
<path d="M107.9 102.6H64.9C64.3 102.6 63.9 102.1 63.9 101.6C63.9 101 64.4 100.6 64.9 100.6H107.9C108.5 100.6 108.9 101.1 108.9 101.6C108.9 102.2 108.4 102.6 107.9 102.6Z" fill="#0F0F0F"/>
<path d="M111.7 98.3H64.9C64.3 98.3 63.9 97.8 63.9 97.3C63.9 96.7 64.4 96.3 64.9 96.3H111.8C112.4 96.3 112.8 96.8 112.8 97.3C112.7 97.8 112.3 98.3 111.7 98.3Z" fill="#0F0F0F"/>
<path d="M114.5 93.9H64.9C64.3 93.9 63.9 93.4 63.9 92.9C63.9 92.3 64.4 91.9 64.9 91.9H114.5C115.1 91.9 115.5 92.4 115.5 92.9C115.5 93.4 115 93.9 114.5 93.9Z" fill="#0F0F0F"/>
<path d="M117 89.5H64.9C64.3 89.5 63.9 89 63.9 88.5C63.9 87.9 64.4 87.5 64.9 87.5H117C117.6 87.5 118 88 118 88.5C118 89 117.5 89.5 117 89.5Z" fill="#0F0F0F"/>
<path d="M119.2 85.1H64.9C64.3 85.1 63.9 84.6 63.9 84.1C63.9 83.6 64.4 83.1 64.9 83.1H119.2C119.8 83.1 120.2 83.6 120.2 84.1C120.2 84.6 119.8 85.1 119.2 85.1Z" fill="#0F0F0F"/>
<path d="M121.1 80.7H64.9C64.3 80.7 63.9 80.2 63.9 79.7C63.9 79.1 64.4 78.7 64.9 78.7H121.1C121.7 78.7 122.1 79.2 122.1 79.7C122.1 80.3 121.6 80.7 121.1 80.7Z" fill="#0F0F0F"/>
<path d="M122.4 76.4H64.9C64.3 76.4 63.9 75.9 63.9 75.4C63.9 74.9 64.4 74.4 64.9 74.4H122.4C123 74.4 123.4 74.9 123.4 75.4C123.4 75.9 123 76.4 122.4 76.4Z" fill="#0F0F0F"/>
<path d="M122.4 72H64.9C64.3 72 63.9 71.5 63.9 71C63.9 70.5 64.4 70 64.9 70H122.4C123 70 123.4 70.5 123.4 71C123.4 71.5 123 72 122.4 72Z" fill="#0F0F0F"/>
<path d="M123.9 67.6H64.9C64.3 67.6 63.9 67.1 63.9 66.6C63.9 66 64.4 65.6 64.9 65.6H124C124.6 65.6 125 66.1 125 66.6C125 67.2 124.5 67.6 123.9 67.6Z" fill="#0F0F0F"/>
<path d="M123.9 63.2H64.9C64.3 63.2 63.9 62.7 63.9 62.2C63.9 61.7 64.4 61.2 64.9 61.2H124C124.6 61.2 125 61.7 125 62.2C125 62.7 124.5 63.2 123.9 63.2Z" fill="#0F0F0F"/>
<path d="M123.9 58.9H64.9C64.3 58.9 63.9 58.4 63.9 57.9C63.9 57.4 64.4 56.9 64.9 56.9H124C124.6 56.9 125 57.4 125 57.9C125 58.4 124.5 58.9 123.9 58.9Z" fill="#0F0F0F"/>
<path d="M123.9 54.5H64.9C64.3 54.5 63.9 54 63.9 53.5C63.9 53 64.4 52.5 64.9 52.5H124C124.6 52.5 125 53 125 53.5C125 54 124.5 54.5 123.9 54.5Z" fill="#0F0F0F"/>
<path d="M122.4 50.1H64.9C64.3 50.1 63.9 49.6 63.9 49.1C63.9 48.6 64.4 48.1 64.9 48.1H122.4C123 48.1 123.4 48.6 123.4 49.1C123.4 49.6 123 50.1 122.4 50.1Z" fill="#0F0F0F"/>
<path d="M122.4 45.7H64.9C64.3 45.7 63.9 45.2 63.9 44.7C63.9 44.2 64.4 43.7 64.9 43.7H122.4C123 43.7 123.4 44.2 123.4 44.7C123.4 45.2 123 45.7 122.4 45.7Z" fill="#0F0F0F"/>
<path d="M121.1 41.4H64.9C64.3 41.4 63.9 40.9 63.9 40.4C63.9 39.8 64.4 39.4 64.9 39.4H121.1C121.7 39.4 122.1 39.9 122.1 40.4C122.1 40.9 121.6 41.4 121.1 41.4Z" fill="#0F0F0F"/>
<path d="M119.2 37H64.9C64.3 37 63.9 36.5 63.9 36C63.9 35.5 64.4 35 64.9 35H119.2C119.8 35 120.2 35.5 120.2 36C120.2 36.5 119.8 37 119.2 37Z" fill="#0F0F0F"/>
<path d="M117 32.6H64.9C64.3 32.6 63.9 32.1 63.9 31.6C63.9 31 64.4 30.6 64.9 30.6H117C117.6 30.6 118 31.1 118 31.6C118 32.2 117.5 32.6 117 32.6Z" fill="#0F0F0F"/>
<path d="M114.5 28.2H64.9C64.3 28.2 63.9 27.7 63.9 27.2C63.9 26.6 64.4 26.2 64.9 26.2H114.5C115.1 26.2 115.5 26.7 115.5 27.2C115.5 27.8 115 28.2 114.5 28.2Z" fill="#0F0F0F"/>
<path d="M111.7 23.9H64.9C64.3 23.9 63.9 23.4 63.9 22.9C63.9 22.3 64.4 21.9 64.9 21.9H111.8C112.4 21.9 112.8 22.4 112.8 22.9C112.7 23.4 112.3 23.9 111.7 23.9Z" fill="#0F0F0F"/>
<path d="M107.9 19.5H64.9C64.3 19.5 63.9 19 63.9 18.5C63.9 18 64.4 17.5 64.9 17.5H107.9C108.5 17.5 108.9 18 108.9 18.5C108.9 19 108.4 19.5 107.9 19.5Z" fill="#0F0F0F"/>
<path d="M103.3 15.1H64.9C64.3 15.1 63.9 14.6 63.9 14.1C63.9 13.5 64.4 13.1 64.9 13.1H103.4C104 13.1 104.4 13.6 104.4 14.1C104.3 14.7 103.9 15.1 103.3 15.1Z" fill="#0F0F0F"/>
<path d="M98.1 10.7H64.9C64.3 10.7 63.9 10.2 63.9 9.69995C63.9 9.19995 64.4 8.69995 64.9 8.69995H98.1C98.7 8.69995 99.1 9.19995 99.1 9.69995C99.1 10.2 98.7 10.7 98.1 10.7Z" fill="#0F0F0F"/>
<path d="M90.6 6.40002H64.9C64.3 6.40002 63.9 5.90002 63.9 5.40002C63.9 4.80002 64.4 4.40002 64.9 4.40002H90.7C91.3 4.40002 91.7 4.90002 91.7 5.40002C91.6 5.90002 91.2 6.40002 90.6 6.40002Z" fill="#0F0F0F"/>
<path d="M79.6 2H64.9C64.3 2 63.9 1.5 63.9 1C63.9 0.5 64.4 0 64.9 0H79.6C80.2 0 80.6 0.5 80.6 1C80.6 1.5 80.1 2 79.6 2Z" fill="#0F0F0F"/>
</svg>
