<svg width="125" height="126" viewBox="0 0 125 126" fill="none" xmlns="http://www.w3.org/2000/svg">
<path d="M52.0529 0.840296C25.1603 4.63925 3.86614 25.8335 0.167158 52.7261C-0.432677 57.2249 3.06636 61.2238 7.6651 61.2238H53.1526C57.3515 61.2238 60.6506 57.8247 60.6506 53.7258V8.23829C60.5506 3.73953 56.5517 0.240461 52.0529 0.840296Z" fill="#0F0F0F"/>
<path d="M0.0671027 73.7202C3.86606 100.613 25.0603 121.907 51.9529 125.606C56.4517 126.206 60.4506 122.707 60.4506 118.108V72.6205C60.4506 68.4217 57.0515 65.1226 52.9526 65.1226H7.4651C2.96633 65.2225 -0.532733 69.2215 0.0671027 73.7202Z" fill="#0F0F0F"/>
<path d="M72.9472 125.706C99.8398 121.907 121.134 100.713 124.833 73.8202C125.433 69.3214 121.934 65.3225 117.335 65.3225H71.8475C67.6486 65.3225 64.3495 68.7216 64.3495 72.8205V118.308C64.4495 122.807 68.4485 126.306 72.9472 125.706Z" fill="#0F0F0F"/>
<path d="M64.4495 8.33837V53.8259C64.4495 58.0247 67.8486 61.3238 71.9474 61.3238H117.435C121.934 61.3238 125.533 57.3249 124.933 52.8262C121.134 25.9335 99.9397 4.63942 73.0471 0.940433C68.4484 0.240625 64.4495 3.73963 64.4495 8.33837Z" fill="#0F0F0F"/>
</svg>
