<svg width="121" height="130" viewBox="0 0 121 130" fill="none" xmlns="http://www.w3.org/2000/svg">
<path d="M60.2618 127.64C77.5342 127.64 91.5363 113.638 91.5363 96.3659C91.5363 79.0935 77.5342 65.0916 60.2618 65.0916C42.9895 65.0916 28.9875 79.0935 28.9875 96.3659C28.9875 113.638 42.9895 127.64 60.2618 127.64Z" stroke="black" stroke-width="4" stroke-miterlimit="10"/>
<path d="M60.2618 65.1891C77.5342 65.1891 91.5363 51.1871 91.5363 33.9147C91.5363 16.6424 77.5342 2.64038 60.2618 2.64038C42.9895 2.64038 28.9875 16.6424 28.9875 33.9147C28.9875 51.1871 42.9895 65.1891 60.2618 65.1891Z" stroke="black" stroke-width="4" stroke-miterlimit="10"/>
<path d="M87.3468 80.7774C104.619 80.7774 118.621 66.7755 118.621 49.5031C118.621 32.2308 104.619 18.2288 87.3468 18.2288C70.0745 18.2288 56.0725 32.2308 56.0725 49.5031C56.0725 66.7755 70.0745 80.7774 87.3468 80.7774Z" stroke="black" stroke-width="4" stroke-miterlimit="10"/>
<path d="M33.2743 112.052C50.5467 112.052 64.5487 98.0499 64.5487 80.7775C64.5487 63.5052 50.5467 49.5032 33.2743 49.5032C16.002 49.5032 2 63.5052 2 80.7775C2 98.0499 16.002 112.052 33.2743 112.052Z" stroke="black" stroke-width="4" stroke-miterlimit="10"/>
<path d="M33.2743 80.7774C50.5467 80.7774 64.5487 66.7755 64.5487 49.5031C64.5487 32.2308 50.5467 18.2288 33.2743 18.2288C16.002 18.2288 2 32.2308 2 49.5031C2 66.7755 16.002 80.7774 33.2743 80.7774Z" stroke="black" stroke-width="4" stroke-miterlimit="10"/>
<path d="M87.3468 112.052C104.619 112.052 118.621 98.0499 118.621 80.7775C118.621 63.5052 104.619 49.5032 87.3468 49.5032C70.0745 49.5032 56.0725 63.5052 56.0725 80.7775C56.0725 98.0499 70.0745 112.052 87.3468 112.052Z" stroke="black" stroke-width="4" stroke-miterlimit="10"/>
</svg>
