<svg width="125" height="126" viewBox="0 0 125 126" fill="none" xmlns="http://www.w3.org/2000/svg">
<path d="M62.5 0.240234C28 0.240234 0 28.2402 0 62.7402C0 97.2402 28 125.24 62.5 125.24C97 125.24 125 97.2402 125 62.7402C125.1 28.3402 97 0.240234 62.5 0.240234ZM91.3 91.5402C75.4 91.5402 62.6 78.6402 62.6 62.8402C62.6 47.0402 49.7 34.1402 33.9 34.1402C18.1 34.1402 5.20001 47.0402 5.20001 62.8402C5.20001 64.7402 5.3 66.6402 5.5 68.4402C5.4 67.5402 5.29999 66.6402 5.29999 65.7402C5.29999 64.7402 5.20001 63.7402 5.20001 62.7402C5.20001 32.0402 29.3 6.94021 59.7 5.34021C60.7 5.24021 61.7 5.24023 62.7 5.24023C63.7 5.24023 64.7 5.24021 65.7 5.34021C66.8 5.44021 67.9 5.54023 69 5.64023C70.6 5.84023 72.2 6.04021 73.8 6.34021C74.2 6.44021 74.7 6.54023 75.1 6.64023C100.8 12.3402 120.1 35.2402 120.1 62.7402C120.1 63.2402 120.1 63.7402 120.1 64.2402C119.2 79.4402 106.6 91.5402 91.3 91.5402Z" fill="#0F0F0F"/>
</svg>
