<svg width="135" height="126" viewBox="0 0 135 126" fill="none" xmlns="http://www.w3.org/2000/svg">
<path d="M51.2422 57.9404C54.7422 59.9404 55.9422 64.4404 53.9422 67.9404C51.9422 71.4404 47.4422 72.6404 43.9422 70.6404L29.6422 62.2404C22.5422 58.0404 13.7422 63.7404 14.6422 71.9404L14.8422 73.8404C15.7422 81.7404 12.3423 89.5404 6.04225 94.2404C-7.95775 104.74 4.6422 126.54 20.7422 119.64C28.0422 116.54 36.4422 117.44 42.8422 122.24L44.3422 123.34C50.9422 128.24 60.3422 123.44 60.2422 115.24L60.1422 98.6404C60.1422 94.5404 63.4422 91.3404 67.4422 91.3404C71.4422 91.3404 74.7422 94.6404 74.7422 98.6404L74.6422 115.24C74.5422 123.44 83.9423 128.24 90.5423 123.34L92.0423 122.24C98.4423 117.54 106.842 116.54 114.142 119.64C130.242 126.54 142.842 104.74 128.842 94.2404C122.442 89.4404 119.142 81.7404 120.042 73.8404L120.242 71.9404C121.142 63.7404 112.342 58.0404 105.242 62.2404L90.9422 70.6404C87.4422 72.6404 82.9422 71.4404 80.9422 67.9404C78.9422 64.4404 80.1422 59.9404 83.6422 57.9404L98.1422 49.7404C105.342 45.6404 104.742 35.2404 97.2422 31.9404L95.5423 31.1404C88.2423 27.9404 83.1422 21.1404 82.2422 13.2404C80.2422 -4.15957 54.9422 -4.15957 52.9422 13.2404C52.0422 21.1404 46.9422 27.9404 39.6422 31.1404L37.9422 31.9404C30.4422 35.2404 29.8423 45.7404 37.0423 49.7404L51.2422 57.9404Z" fill="#0F0F0F"/>
</svg>
