<svg width="125" height="124" viewBox="0 0 125 124" fill="none" xmlns="http://www.w3.org/2000/svg">
<path d="M52.3508 40.9673H33.4382C31.1367 40.9673 29.2354 39.0661 29.2354 36.7646C29.2354 34.463 31.1367 32.5618 33.4382 32.5618H52.3508C54.6523 32.5618 56.5536 34.463 56.5536 36.7646C56.5536 39.0661 54.6523 40.9673 52.3508 40.9673Z" fill="#0F0F0F"/>
<path d="M19.7291 60.1803L29.8358 44.1696C31.0366 42.1683 33.6383 41.5679 35.6396 42.8688C37.641 44.0695 38.2414 46.6713 36.9405 48.6726L26.8338 64.6832C25.633 66.6846 23.0313 67.285 21.0299 65.9841C19.1287 64.7833 18.5283 62.1816 19.7291 60.1803Z" fill="#0F0F0F"/>
<path d="M6.32025 64.6832L8.72184 45.8707C9.02204 43.5692 11.1234 41.9681 13.425 42.2683C15.7265 42.5685 17.3275 44.6699 17.0273 46.9714L14.6257 65.7839C14.3255 68.0855 12.2242 69.6865 9.92265 69.3863C7.62112 69.0861 6.02005 66.9847 6.32025 64.6832Z" fill="#0F0F0F"/>
<path d="M23.4316 80.894L4.61905 82.5951C2.31753 82.7953 0.216128 81.0941 0.0159948 78.7926C-0.184138 76.4911 1.51701 74.3897 3.81854 74.1895L22.631 72.4884C24.9325 72.2883 27.0339 73.9894 27.2341 76.2909C27.4342 78.5925 25.7331 80.6938 23.4316 80.894Z" fill="#0F0F0F"/>
<path d="M16.6271 87.3983L29.6357 101.107C31.2368 102.809 31.1367 105.51 29.4356 107.011C27.7345 108.612 25.0326 108.512 23.5316 106.811L10.523 93.1021C8.92195 91.401 9.02203 88.6992 10.7232 87.1982C12.4243 85.5971 15.026 85.6972 16.6271 87.3983Z" fill="#0F0F0F"/>
<path d="M43.1447 69.6864L37.641 87.7984C36.9406 89.9999 34.639 91.3007 32.3375 90.6003C30.1361 89.8998 28.8352 87.5983 29.5356 85.2968L35.0393 67.1847C35.7398 64.9833 38.0413 63.6824 40.3428 64.3829C42.6444 65.0833 43.8451 67.4849 43.1447 69.6864Z" fill="#0F0F0F"/>
<path d="M46.3468 96.004L38.3415 113.215C37.3408 115.317 34.8391 116.217 32.7377 115.217C30.6363 114.216 29.7357 111.714 30.7364 109.613L38.7417 92.4016C39.7424 90.3002 42.244 89.3996 44.3454 90.4002C46.4468 91.4009 47.3474 93.9026 46.3468 96.004Z" fill="#0F0F0F"/>
<path d="M50.4494 99.0059L69.1618 101.708C71.4634 102.008 73.0644 104.209 72.7642 106.511C72.464 108.812 70.2626 110.413 67.9611 110.113L49.2486 107.411C46.9471 107.111 45.346 104.91 45.6462 102.608C46.0465 100.207 48.1479 98.6056 50.4494 99.0059Z" fill="#0F0F0F"/>
<path d="M47.9479 115.317L66.4602 111.214C68.7617 110.714 70.9632 112.115 71.4635 114.416C71.9638 116.718 70.5629 118.919 68.2613 119.419L49.7491 123.522C47.4475 124.022 45.2461 122.622 44.7457 120.32C44.2454 118.018 45.6464 115.817 47.9479 115.317Z" fill="#0F0F0F"/>
<path d="M65.1592 73.8894L81.8703 82.6952C83.9717 83.796 84.6722 86.2976 83.6715 88.399C82.6708 90.5004 80.0691 91.2009 77.9677 90.2002L61.2566 81.3943C59.1553 80.2936 58.4548 77.792 59.4555 75.6906C60.5562 73.5892 63.0578 72.7886 65.1592 73.8894Z" fill="#0F0F0F"/>
<path d="M94.1784 80.4937L99.9823 98.5057C100.683 100.707 99.482 103.109 97.2805 103.809C95.079 104.51 92.6775 103.309 91.977 101.107L86.1731 83.0955C85.4727 80.894 86.6735 78.4924 88.8749 77.792C91.0764 77.0915 93.3779 78.1922 94.1784 80.4937Z" fill="#0F0F0F"/>
<path d="M81.6702 94.403L93.378 109.313C94.7789 111.114 94.4787 113.816 92.6775 115.217C90.8763 116.618 88.1745 116.318 86.7736 114.516L74.9658 99.6065C73.5649 97.8053 73.865 95.1035 75.6662 93.7025C77.5675 92.3016 80.1692 92.6018 81.6702 94.403Z" fill="#0F0F0F"/>
<path d="M85.5728 26.6581L104.185 29.9602C106.487 30.3605 107.988 32.562 107.587 34.8635C107.187 37.165 104.986 38.666 102.684 38.2658L84.0718 34.9635C81.7703 34.5633 80.2693 32.3618 80.6695 30.0603C81.1699 27.7588 83.3713 26.2578 85.5728 26.6581Z" fill="#0F0F0F"/>
<path d="M85.1725 3.64277L98.8815 16.6514C100.583 18.2525 100.683 20.9543 99.0817 22.5553C97.4806 24.2564 94.7788 24.3565 93.1778 22.7555L79.4687 9.74683C77.7676 8.14577 77.6675 5.44395 79.2686 3.84289C80.7695 2.14176 83.4713 2.04171 85.1725 3.64277Z" fill="#0F0F0F"/>
<path d="M96.0797 47.0715L112.591 37.7654C114.592 36.6647 117.194 37.3651 118.294 39.3664C119.395 41.3677 118.695 43.9695 116.693 45.0702L100.182 54.3764C98.1812 55.4771 95.5794 54.7767 94.4787 52.7753C93.378 50.774 94.0784 48.1723 96.0797 47.0715Z" fill="#0F0F0F"/>
<path d="M95.8797 75.5903L102.184 57.7785C102.984 55.5771 105.386 54.4763 107.587 55.1768C109.789 55.9773 110.89 58.3789 110.189 60.5804L103.885 78.3922C103.084 80.5937 100.683 81.6944 98.4814 80.9939C96.2799 80.2935 95.1792 77.7918 95.8797 75.5903Z" fill="#0F0F0F"/>
<path d="M104.385 99.6063L106.086 80.7939C106.287 78.4924 108.388 76.7912 110.69 76.9913C112.991 77.1915 114.692 79.2929 114.492 81.5944L112.791 100.407C112.591 102.708 110.489 104.41 108.188 104.209C105.886 104.009 104.185 102.008 104.385 99.6063Z" fill="#0F0F0F"/>
<path d="M116.693 73.389L112.591 54.8767C112.09 52.5752 113.491 50.3737 115.793 49.8734C118.094 49.373 120.296 50.774 120.796 53.0755L124.899 71.5878C125.399 73.8893 123.998 76.0908 121.697 76.5911C119.495 77.0914 117.194 75.6905 116.693 73.389Z" fill="#0F0F0F"/>
<path d="M42.5442 5.9441L44.6456 24.7566C44.9458 27.0581 43.2447 29.1595 40.9432 29.3596C38.6417 29.6598 36.5403 27.9587 36.3401 25.6572L34.2387 6.84469C33.9385 4.54317 35.6397 2.4418 37.9412 2.24166C40.2427 1.94146 42.3441 3.64257 42.5442 5.9441Z" fill="#0F0F0F"/>
<path d="M8.72177 31.2611L26.0332 23.556C28.1346 22.6554 30.6363 23.556 31.637 25.6574C32.5376 27.7588 31.637 30.2605 29.5356 31.2611L12.2241 38.9662C10.1227 39.8668 7.62103 38.9662 6.62037 36.8648C5.6197 34.7634 6.62037 32.1617 8.72177 31.2611Z" fill="#0F0F0F"/>
<path d="M57.3541 62.2817L72.1639 50.5739C73.9651 49.1729 76.6669 49.4732 78.0678 51.2743C79.4687 53.0755 79.1685 55.7773 77.3673 57.1783L62.5575 68.886C60.7563 70.2869 58.0545 69.9868 56.6536 68.1856C55.2527 66.3844 55.5529 63.6826 57.3541 62.2817Z" fill="#0F0F0F"/>
<path d="M80.5695 45.8708L62.3574 40.7674C60.156 40.167 58.8551 37.8655 59.4555 35.564C60.0559 33.3625 62.3574 32.0616 64.659 32.662L82.871 37.7654C85.0725 38.3658 86.3734 40.6673 85.773 42.9689C85.1726 45.1703 82.771 46.4712 80.5695 45.8708Z" fill="#0F0F0F"/>
<path d="M91.7769 50.3737L91.0764 69.2863C90.9764 71.5878 89.0751 73.389 86.6735 73.2889C84.372 73.1888 82.5708 71.2876 82.6709 68.886L83.3714 49.9734C83.4714 47.6719 85.3727 45.8707 87.7743 45.9708C89.9757 46.1709 91.7769 48.0722 91.7769 50.3737Z" fill="#0F0F0F"/>
<path d="M56.5535 74.1896L55.8531 93.1021C55.753 95.4037 53.8518 97.2049 51.4502 97.1048C49.0486 97.0047 47.3475 95.1035 47.4475 92.7019L48.148 73.7893C48.248 71.4878 50.1493 69.6866 52.5509 69.7867C54.7523 69.8868 56.6536 71.788 56.5535 74.1896Z" fill="#0F0F0F"/>
<path d="M52.0505 0.340466L69.6622 7.34511C71.8636 8.24571 72.8643 10.6473 72.0638 12.8488C71.1632 15.0502 68.7616 16.0509 66.5601 15.2504L48.9485 8.24573C46.747 7.34514 45.7463 4.94354 46.5468 2.74208C47.4474 0.540623 49.849 -0.560132 52.0505 0.340466Z" fill="#0F0F0F"/>
<path d="M57.1539 22.0548L75.5662 17.5518C77.8677 17.0515 80.0691 18.3523 80.6695 20.6539C81.1699 22.9554 79.869 25.1569 77.5675 25.7573L59.1553 30.2602C56.8537 30.7606 54.6523 29.4597 54.0519 27.1582C53.5516 24.9567 54.9525 22.6552 57.1539 22.0548Z" fill="#0F0F0F"/>
<path d="M41.7437 50.5738L60.1559 46.0708C62.4574 45.5705 64.6589 46.8714 65.2593 49.1729C65.7596 51.4744 64.4588 53.6759 62.1572 54.2763L43.745 58.7793C41.4435 59.2796 39.242 57.9787 38.6416 55.6772C38.1413 53.4758 39.5422 51.1742 41.7437 50.5738Z" fill="#0F0F0F"/>
</svg>
