<svg width="125" height="126" viewBox="0 0 125 126" fill="none" xmlns="http://www.w3.org/2000/svg">
<path d="M0 75.2805V105.456C0 108.354 3.49998 109.853 5.59998 107.755L35.7999 77.5787C37.8999 75.4804 36.4 71.9832 33.5 71.9832H3.19995C1.39995 71.9832 0 73.382 0 75.2805Z" fill="currentColor"/>
<path d="M35.7999 48.9017L5.59998 18.7259C3.49998 16.6276 0 18.1264 0 21.0241V51.1999C0 52.9985 1.49993 54.4973 3.29993 54.4973H33.5C36.4 54.4973 37.7999 51.0001 35.7999 48.9017Z" fill="currentColor"/>
<path d="M50.3999 0.840332H20.1999C17.2999 0.840332 15.7999 4.33753 17.8999 6.43585L48.1 36.6117C50.2 38.71 53.6999 37.2112 53.6999 34.3135V4.1377C53.6999 2.23922 52.2999 0.840332 50.3999 0.840332Z" fill="currentColor"/>
<path d="M71.2 4.0376V34.2135C71.2 37.1112 74.6999 38.6099 76.7999 36.5116L107 6.33577C109.1 4.23744 107.6 0.740234 104.7 0.740234H74.5C72.6 0.840154 71.2 2.23904 71.2 4.0376Z" fill="currentColor"/>
<path d="M89.1 77.5787L119.3 107.755C121.4 109.853 124.9 108.354 124.9 105.456V75.2805C124.9 73.4819 123.4 71.9832 121.6 71.9832H91.3999C88.4999 71.9832 87.1 75.4804 89.1 77.5787Z" fill="currentColor"/>
<path d="M125 51.1999V21.0241C125 18.1264 121.5 16.6276 119.4 18.7259L89.2 48.9017C87.1 51.0001 88.6001 54.4973 91.5001 54.4973H121.7C123.5 54.4973 125 53.0984 125 51.1999Z" fill="currentColor"/>
<path d="M71.2 92.267V122.443C71.2 124.241 72.7 125.74 74.5 125.74H104.7C107.6 125.74 109.1 122.243 107 120.145L76.7999 89.9689C74.6999 87.8705 71.2 89.2694 71.2 92.267Z" fill="currentColor"/>
<path d="M48.0998 89.869L17.8998 120.045C15.7998 122.143 17.2998 125.64 20.1998 125.64H50.3998C52.1998 125.64 53.6998 124.142 53.6998 122.343V92.1672C53.6998 89.2695 50.1998 87.8706 48.0998 89.869Z" fill="currentColor"/>
</svg>
