<svg width="126" height="126" viewBox="0 0 126 126" fill="none" xmlns="http://www.w3.org/2000/svg">
<path d="M99.7316 67.1231V85.5054L87.6914 78.5569V74.0716L79.3918 69.283L75.5131 67.0404V53.1433L79.3181 55.34L91.432 62.3345L99.7316 67.1231Z" stroke="black" stroke-width="4.37362" stroke-linecap="round" stroke-linejoin="round"/>
<path d="M51.3679 53.0974V67.0772L47.5534 69.2831L39.4102 73.9798V78.3823L27.3052 85.3768V66.9945L35.4487 62.2886L47.48 55.3401L51.3679 53.0974Z" stroke="black" stroke-width="4.37362" stroke-linecap="round" stroke-linejoin="round"/>
<path d="M123.794 53.2261L107.875 62.4173L99.7316 67.1232L91.432 62.3346L79.3181 55.3401L75.5131 53.1434L83.6656 48.4375L87.4708 46.2408L99.5753 39.2463L123.794 53.2261Z" stroke="black" stroke-width="4.37362" stroke-linecap="round" stroke-linejoin="round"/>
<path d="M87.4716 32.252L71.5524 41.4432L63.3997 46.1491L55.1002 41.3604L39.181 32.1693L63.2527 18.2722L87.4716 32.252Z" stroke="black" stroke-width="4.37362" stroke-linecap="round" stroke-linejoin="round"/>
<path d="M51.3682 53.0975L47.4804 55.3401L35.4491 62.2886L27.3056 66.9945L19.0062 62.1967L3.08698 53.0055L27.1494 39.1177L39.1807 46.0662L43.0686 48.3089L51.3682 53.0975Z" stroke="black" stroke-width="4.37362" stroke-linecap="round" stroke-linejoin="round"/>
<path d="M123.794 53.2261V71.6084L99.7317 85.5055V67.1231L107.875 62.4173L123.794 53.2261Z" stroke="black" stroke-width="4.37362" stroke-linecap="round" stroke-linejoin="round"/>
<path d="M87.692 74.0715V92.4539L63.6294 106.351V87.9686L71.7728 83.2627L83.8134 76.3142L87.692 74.0715Z" stroke="black" stroke-width="4.37362" stroke-linecap="round" stroke-linejoin="round"/>
<path d="M87.6921 74.0718L83.8136 76.3145L71.773 83.263L63.6295 87.9689L55.3301 83.1711L43.2251 76.1858L39.4109 73.9799L47.5542 69.2832L51.3686 67.0773L59.5947 62.3347L63.3998 60.138L63.4733 60.092L67.2786 62.2887L75.5138 67.0406L79.3925 69.2832L87.6921 74.0718Z" stroke="black" stroke-width="4.37362" stroke-linecap="round" stroke-linejoin="round"/>
<path d="M63.6295 87.9687V106.351L39.4109 92.3621V73.9797L43.2251 76.1856L55.3301 83.1709L63.6295 87.9687Z" stroke="black" stroke-width="4.37362" stroke-linecap="round" stroke-linejoin="round"/>
<path d="M27.3056 66.9943V85.3767L3.08698 71.3877V53.0054L19.0062 62.1965L27.3056 66.9943Z" stroke="black" stroke-width="4.37362" stroke-linecap="round" stroke-linejoin="round"/>
<path d="M87.4714 32.2517V46.2407L83.6662 48.4374L75.5137 53.1433V57.5366L67.2784 62.2885L63.4732 60.0918L63.3996 60.1377V46.1488L71.5522 41.4429L87.4714 32.2517Z" stroke="black" stroke-width="4.37362" stroke-linecap="round" stroke-linejoin="round"/>
<path d="M63.3997 46.149V60.1379L59.5946 62.3346L51.3685 57.5828V53.0975L43.0689 48.3089L39.181 46.0662V32.1692L55.1002 41.3604L63.3997 46.149Z" stroke="black" stroke-width="4.37362" stroke-linecap="round" stroke-linejoin="round"/>
</svg>
