<svg width="137" height="126" viewBox="0 0 137 126" fill="none" xmlns="http://www.w3.org/2000/svg">
<path d="M127.995 78.0689C122.558 72.6319 115.309 69.9134 108.16 70.0141C103.932 70.0141 100.106 67.7991 97.9914 64.1744L91.9503 53.8039C89.8359 50.1793 89.8359 45.6485 91.9503 42.0238C98.1927 31.4519 96.7831 17.5574 87.6208 8.39513C76.8475 -2.37813 59.3284 -2.37813 48.4544 8.39513C39.2921 17.5574 37.8826 31.3512 44.1251 42.0238C46.2395 45.6485 46.2395 50.1793 44.1251 53.8039L38.084 64.1744C35.9696 67.7991 32.1436 70.1148 27.9149 70.0141C20.7663 69.9134 13.5169 72.6319 8.07994 78.0689C-2.69331 88.8422 -2.69331 106.361 8.07994 117.235C18.8532 128.008 36.3723 128.008 47.2463 117.235C49.0586 115.423 50.5689 113.409 51.7771 111.295C53.8915 107.67 57.7175 105.354 61.9462 105.354H73.9277C78.1565 105.354 82.0831 107.569 84.0968 111.295C85.305 113.409 86.8153 115.423 88.6276 117.235C99.4009 128.008 116.92 128.008 127.794 117.235C138.769 106.361 138.769 88.8422 127.995 78.0689ZM51.6764 71.7258L57.7175 61.3553C59.8319 57.6299 63.7585 55.5155 68.088 55.5155C68.1886 55.5155 68.2894 55.5155 68.3901 55.5155C72.6188 55.5155 76.5456 57.7306 78.7606 61.3553L84.8017 71.7258C86.9161 75.3504 86.916 79.8812 84.7009 83.5059C84.6002 83.6066 84.6003 83.7072 84.6003 83.8079C82.4859 87.5333 78.5592 89.849 74.3305 89.849H62.349C58.1202 89.849 54.1936 87.5333 52.0792 83.8079C52.0792 83.7072 51.9784 83.6066 51.9784 83.5059C49.562 79.9819 49.5621 75.4511 51.6764 71.7258Z" fill="#0F0F0F"/>
</svg>
