<svg width="125" height="126" viewBox="0 0 125 126" fill="none" xmlns="http://www.w3.org/2000/svg">
<path fill-rule="evenodd" clip-rule="evenodd" d="M112.829 101.221V96.5169H125V30.1638H112.829V25.46H124.8C123.603 11.649 112.031 0.840332 97.9649 0.840332H27.0351C12.9689 0.840332 1.39666 11.649 0.199533 25.46H12.1708V30.1638H0V96.5169H12.1708V101.221H0.199533C1.39666 115.032 12.9689 125.84 27.0351 125.84H97.9649C112.031 125.84 123.603 115.032 124.8 101.221H112.829ZM62.6496 87.4096C49.3815 87.4096 38.6074 76.6009 38.6074 63.2903C38.6074 49.9797 49.3815 39.171 62.6496 39.171C75.9178 39.171 86.692 49.9797 86.692 63.2903C86.692 76.6009 75.818 87.4096 62.6496 87.4096Z" fill="#0F0F0F"/>
</svg>
