<svg width="125" height="119" viewBox="0 0 125 119" fill="none" xmlns="http://www.w3.org/2000/svg">
<path d="M67.7778 102.918H84.6296L71.0185 93.0107L76.2037 76.9922L62.5926 86.8996L48.8889 76.9922L54.074 93.0107L40.463 102.918H57.3148L62.5926 118.937L67.7778 102.918Z" fill="#0F0F0F"/>
<path d="M108.148 73.5663H125L111.389 63.6589L116.574 47.6404L102.963 57.5478L89.3519 47.6404L94.537 63.6589L80.9259 73.5663H97.7778L102.963 89.5848L108.148 73.5663Z" fill="#0F0F0F"/>
<path d="M92.7778 26.0663H109.63L95.9259 16.1589L101.204 0.140381L87.5 10.0478L73.8889 0.140381L79.074 16.1589L65.463 26.0663H82.3148L87.5 42.0848L92.7778 26.0663Z" fill="#0F0F0F"/>
<path d="M42.7778 26.0663H59.6296L46.0185 16.1589L51.2037 0.140381L37.5926 10.0478L23.8889 0.140381L29.1667 16.1589L15.463 26.0663H32.3148L37.5926 42.0848L42.7778 26.0663Z" fill="#0F0F0F"/>
<path d="M27.3148 73.5663H44.1667L30.5556 63.6589L35.7407 47.6404L22.1296 57.5478L8.51853 47.6404L13.7037 63.6589L0 73.5663H16.9444L22.1296 89.5848L27.3148 73.5663Z" fill="#0F0F0F"/>
</svg>
