<svg width="125" height="126" viewBox="0 0 125 126" fill="none" xmlns="http://www.w3.org/2000/svg">
<path d="M62.5 125.74C28 125.74 0 97.7402 0 63.2402C0 28.7402 28 0.740234 62.5 0.740234C97 0.740234 125 28.7402 125 63.2402C125 97.7402 96.9 125.74 62.5 125.74ZM62.5 7.84024C31.9 7.84024 7.09999 32.7402 7.09999 63.2402C7.09999 93.7402 32 118.64 62.5 118.64C93 118.64 117.9 93.7402 117.9 63.2402C117.9 32.7402 93 7.84024 62.5 7.84024Z" fill="#0F0F0F"/>
<path d="M66 4.34033H58.9V122.24H66V4.34033Z" fill="#0F0F0F"/>
<path d="M60.5555 64.6696L13.2472 95.3794L17.1131 101.335L64.4214 70.6251L60.5555 64.6696Z" fill="#0F0F0F"/>
<path d="M64.4112 64.5677L60.5452 70.5232L107.854 101.233L111.719 95.2775L64.4112 64.5677Z" fill="#0F0F0F"/>
</svg>
