<svg width="125" height="125" viewBox="0 0 125 125" fill="none" xmlns="http://www.w3.org/2000/svg">
<path d="M44.0647 14.3885C48.038 14.3885 51.259 11.1675 51.259 7.19425C51.259 3.22097 48.038 0 44.0647 0C40.0915 0 36.8705 3.22097 36.8705 7.19425C36.8705 11.1675 40.0915 14.3885 44.0647 14.3885Z" fill="#0F0F0F"/>
<path d="M62.4501 14.3885C66.4233 14.3885 69.6443 11.1675 69.6443 7.19425C69.6443 3.22097 66.4233 0 62.4501 0C58.4768 0 55.2558 3.22097 55.2558 7.19425C55.2558 11.1675 58.4768 14.3885 62.4501 14.3885Z" fill="#0F0F0F"/>
<path d="M80.9353 14.3885C84.9085 14.3885 88.1295 11.1675 88.1295 7.19425C88.1295 3.22097 84.9085 0 80.9353 0C76.962 0 73.741 3.22097 73.741 7.19425C73.741 11.1675 76.962 14.3885 80.9353 14.3885Z" fill="#0F0F0F"/>
<path d="M44.0647 32.8737C48.038 32.8737 51.259 29.6527 51.259 25.6795C51.259 21.7062 48.038 18.4852 44.0647 18.4852C40.0915 18.4852 36.8705 21.7062 36.8705 25.6795C36.8705 29.6527 40.0915 32.8737 44.0647 32.8737Z" fill="#0F0F0F"/>
<path d="M25.6795 32.8737C29.6527 32.8737 32.8737 29.6527 32.8737 25.6795C32.8737 21.7062 29.6527 18.4852 25.6795 18.4852C21.7062 18.4852 18.4852 21.7062 18.4852 25.6795C18.4852 29.6527 21.7062 32.8737 25.6795 32.8737Z" fill="#0F0F0F"/>
<path d="M62.4501 32.8737C66.4233 32.8737 69.6443 29.6527 69.6443 25.6795C69.6443 21.7062 66.4233 18.4852 62.4501 18.4852C58.4768 18.4852 55.2558 21.7062 55.2558 25.6795C55.2558 29.6527 58.4768 32.8737 62.4501 32.8737Z" fill="#0F0F0F"/>
<path d="M80.9353 32.8737C84.9085 32.8737 88.1295 29.6527 88.1295 25.6795C88.1295 21.7062 84.9085 18.4852 80.9353 18.4852C76.962 18.4852 73.741 21.7062 73.741 25.6795C73.741 29.6527 76.962 32.8737 80.9353 32.8737Z" fill="#0F0F0F"/>
<path d="M99.3205 32.8737C103.294 32.8737 106.515 29.6527 106.515 25.6795C106.515 21.7062 103.294 18.4852 99.3205 18.4852C95.3473 18.4852 92.1263 21.7062 92.1263 25.6795C92.1263 29.6527 95.3473 32.8737 99.3205 32.8737Z" fill="#0F0F0F"/>
<path d="M80.9353 125C84.9085 125 88.1295 121.779 88.1295 117.806C88.1295 113.833 84.9085 110.612 80.9353 110.612C76.962 110.612 73.741 113.833 73.741 117.806C73.741 121.779 76.962 125 80.9353 125Z" fill="#0F0F0F"/>
<path d="M62.4501 125C66.4233 125 69.6443 121.779 69.6443 117.806C69.6443 113.833 66.4233 110.612 62.4501 110.612C58.4768 110.612 55.2558 113.833 55.2558 117.806C55.2558 121.779 58.4768 125 62.4501 125Z" fill="#0F0F0F"/>
<path d="M44.0647 125C48.038 125 51.259 121.779 51.259 117.806C51.259 113.833 48.038 110.612 44.0647 110.612C40.0915 110.612 36.8705 113.833 36.8705 117.806C36.8705 121.779 40.0915 125 44.0647 125Z" fill="#0F0F0F"/>
<path d="M80.9353 106.515C84.9085 106.515 88.1295 103.294 88.1295 99.3206C88.1295 95.3473 84.9085 92.1263 80.9353 92.1263C76.962 92.1263 73.741 95.3473 73.741 99.3206C73.741 103.294 76.962 106.515 80.9353 106.515Z" fill="#0F0F0F"/>
<path d="M99.3205 106.515C103.294 106.515 106.515 103.294 106.515 99.3206C106.515 95.3473 103.294 92.1263 99.3205 92.1263C95.3473 92.1263 92.1263 95.3473 92.1263 99.3206C92.1263 103.294 95.3473 106.515 99.3205 106.515Z" fill="#0F0F0F"/>
<path d="M62.4501 106.515C66.4233 106.515 69.6443 103.294 69.6443 99.3206C69.6443 95.3473 66.4233 92.1263 62.4501 92.1263C58.4768 92.1263 55.2558 95.3473 55.2558 99.3206C55.2558 103.294 58.4768 106.515 62.4501 106.515Z" fill="#0F0F0F"/>
<path d="M44.0647 106.515C48.038 106.515 51.259 103.294 51.259 99.3206C51.259 95.3473 48.038 92.1263 44.0647 92.1263C40.0915 92.1263 36.8705 95.3473 36.8705 99.3206C36.8705 103.294 40.0915 106.515 44.0647 106.515Z" fill="#0F0F0F"/>
<path d="M25.6795 106.515C29.6527 106.515 32.8737 103.294 32.8737 99.3206C32.8737 95.3473 29.6527 92.1263 25.6795 92.1263C21.7062 92.1263 18.4852 95.3473 18.4852 99.3206C18.4852 103.294 21.7062 106.515 25.6795 106.515Z" fill="#0F0F0F"/>
<path d="M44.0647 51.259C48.038 51.259 51.259 48.038 51.259 44.0647C51.259 40.0915 48.038 36.8705 44.0647 36.8705C40.0915 36.8705 36.8705 40.0915 36.8705 44.0647C36.8705 48.038 40.0915 51.259 44.0647 51.259Z" fill="#0F0F0F"/>
<path d="M25.6795 51.259C29.6527 51.259 32.8737 48.038 32.8737 44.0647C32.8737 40.0915 29.6527 36.8705 25.6795 36.8705C21.7062 36.8705 18.4852 40.0915 18.4852 44.0647C18.4852 48.038 21.7062 51.259 25.6795 51.259Z" fill="#0F0F0F"/>
<path d="M7.19423 51.259C11.1675 51.259 14.3885 48.038 14.3885 44.0647C14.3885 40.0915 11.1675 36.8705 7.19423 36.8705C3.22096 36.8705 0 40.0915 0 44.0647C0 48.038 3.22096 51.259 7.19423 51.259Z" fill="#0F0F0F"/>
<path d="M62.4501 51.259C66.4233 51.259 69.6443 48.038 69.6443 44.0647C69.6443 40.0915 66.4233 36.8705 62.4501 36.8705C58.4768 36.8705 55.2558 40.0915 55.2558 44.0647C55.2558 48.038 58.4768 51.259 62.4501 51.259Z" fill="#0F0F0F"/>
<path d="M80.9353 51.259C84.9085 51.259 88.1295 48.038 88.1295 44.0647C88.1295 40.0915 84.9085 36.8705 80.9353 36.8705C76.962 36.8705 73.741 40.0915 73.741 44.0647C73.741 48.038 76.962 51.259 80.9353 51.259Z" fill="#0F0F0F"/>
<path d="M99.3205 51.259C103.294 51.259 106.515 48.038 106.515 44.0647C106.515 40.0915 103.294 36.8705 99.3205 36.8705C95.3473 36.8705 92.1263 40.0915 92.1263 44.0647C92.1263 48.038 95.3473 51.259 99.3205 51.259Z" fill="#0F0F0F"/>
<path d="M117.806 51.259C121.779 51.259 125 48.038 125 44.0647C125 40.0915 121.779 36.8705 117.806 36.8705C113.832 36.8705 110.612 40.0915 110.612 44.0647C110.612 48.038 113.832 51.259 117.806 51.259Z" fill="#0F0F0F"/>
<path d="M44.0647 69.6444C48.038 69.6444 51.259 66.4234 51.259 62.4501C51.259 58.4768 48.038 55.2559 44.0647 55.2559C40.0915 55.2559 36.8705 58.4768 36.8705 62.4501C36.8705 66.4234 40.0915 69.6444 44.0647 69.6444Z" fill="#0F0F0F"/>
<path d="M25.6795 69.6444C29.6527 69.6444 32.8737 66.4234 32.8737 62.4501C32.8737 58.4768 29.6527 55.2559 25.6795 55.2559C21.7062 55.2559 18.4852 58.4768 18.4852 62.4501C18.4852 66.4234 21.7062 69.6444 25.6795 69.6444Z" fill="#0F0F0F"/>
<path d="M7.19423 69.6444C11.1675 69.6444 14.3885 66.4234 14.3885 62.4501C14.3885 58.4768 11.1675 55.2559 7.19423 55.2559C3.22096 55.2559 0 58.4768 0 62.4501C0 66.4234 3.22096 69.6444 7.19423 69.6444Z" fill="#0F0F0F"/>
<path d="M62.4501 69.6444C66.4233 69.6444 69.6443 66.4234 69.6443 62.4501C69.6443 58.4768 66.4233 55.2559 62.4501 55.2559C58.4768 55.2559 55.2558 58.4768 55.2558 62.4501C55.2558 66.4234 58.4768 69.6444 62.4501 69.6444Z" fill="#0F0F0F"/>
<path d="M80.9353 69.6444C84.9085 69.6444 88.1295 66.4234 88.1295 62.4501C88.1295 58.4768 84.9085 55.2559 80.9353 55.2559C76.962 55.2559 73.741 58.4768 73.741 62.4501C73.741 66.4234 76.962 69.6444 80.9353 69.6444Z" fill="#0F0F0F"/>
<path d="M99.3205 69.6444C103.294 69.6444 106.515 66.4234 106.515 62.4501C106.515 58.4768 103.294 55.2559 99.3205 55.2559C95.3473 55.2559 92.1263 58.4768 92.1263 62.4501C92.1263 66.4234 95.3473 69.6444 99.3205 69.6444Z" fill="#0F0F0F"/>
<path d="M117.806 69.6444C121.779 69.6444 125 66.4234 125 62.4501C125 58.4768 121.779 55.2559 117.806 55.2559C113.832 55.2559 110.612 58.4768 110.612 62.4501C110.612 66.4234 113.832 69.6444 117.806 69.6444Z" fill="#0F0F0F"/>
<path d="M44.0647 88.1295C48.038 88.1295 51.259 84.9085 51.259 80.9352C51.259 76.9619 48.038 73.741 44.0647 73.741C40.0915 73.741 36.8705 76.9619 36.8705 80.9352C36.8705 84.9085 40.0915 88.1295 44.0647 88.1295Z" fill="#0F0F0F"/>
<path d="M25.6795 88.1295C29.6527 88.1295 32.8737 84.9085 32.8737 80.9352C32.8737 76.9619 29.6527 73.741 25.6795 73.741C21.7062 73.741 18.4852 76.9619 18.4852 80.9352C18.4852 84.9085 21.7062 88.1295 25.6795 88.1295Z" fill="#0F0F0F"/>
<path d="M7.19423 88.1295C11.1675 88.1295 14.3885 84.9085 14.3885 80.9352C14.3885 76.9619 11.1675 73.741 7.19423 73.741C3.22096 73.741 0 76.9619 0 80.9352C0 84.9085 3.22096 88.1295 7.19423 88.1295Z" fill="#0F0F0F"/>
<path d="M62.4501 88.1295C66.4233 88.1295 69.6443 84.9085 69.6443 80.9352C69.6443 76.9619 66.4233 73.741 62.4501 73.741C58.4768 73.741 55.2558 76.9619 55.2558 80.9352C55.2558 84.9085 58.4768 88.1295 62.4501 88.1295Z" fill="#0F0F0F"/>
<path d="M80.9353 88.1295C84.9085 88.1295 88.1295 84.9085 88.1295 80.9352C88.1295 76.9619 84.9085 73.741 80.9353 73.741C76.962 73.741 73.741 76.9619 73.741 80.9352C73.741 84.9085 76.962 88.1295 80.9353 88.1295Z" fill="#0F0F0F"/>
<path d="M99.3205 88.1295C103.294 88.1295 106.515 84.9085 106.515 80.9352C106.515 76.9619 103.294 73.741 99.3205 73.741C95.3473 73.741 92.1263 76.9619 92.1263 80.9352C92.1263 84.9085 95.3473 88.1295 99.3205 88.1295Z" fill="#0F0F0F"/>
<path d="M117.806 88.1295C121.779 88.1295 125 84.9085 125 80.9352C125 76.9619 121.779 73.741 117.806 73.741C113.832 73.741 110.612 76.9619 110.612 80.9352C110.612 84.9085 113.832 88.1295 117.806 88.1295Z" fill="#0F0F0F"/>
</svg>
