<svg width="125" height="129" viewBox="0 0 125 129" fill="none" xmlns="http://www.w3.org/2000/svg">
<path d="M61 128.34C60.2 128.34 59.5 127.64 59.5 126.84C59.5 126.04 60.2 125.34 61 125.34C94.7 125.34 122.1 97.9403 122.1 64.2403C122.1 30.5403 94.7 3.14026 61 3.14026C29 3.14026 2.90002 29.2403 2.90002 61.2403C2.90002 93.2403 29 119.34 61 119.34C91.4 119.34 116.1 94.6403 116.1 64.2403C116.1 33.8403 91.4 9.14026 61 9.14026C32.3 9.14026 8.90002 32.5403 8.90002 61.3403C8.90002 90.1403 32.3 113.54 61 113.54C88.1 113.54 110.1 91.4403 110.1 64.3403C110.1 37.2403 88.1 15.1403 61 15.1403C35.5 15.1403 14.8 35.8403 14.8 61.3403C14.8 86.8403 35.5 107.54 61 107.54C84.8 107.54 104.2 88.1403 104.2 64.3403C104.2 40.5403 84.8 21.1403 61 21.1403C38.8 21.1403 20.8 39.2403 20.8 61.3403C20.8 83.5403 38.8 101.54 61 101.54C81.5 101.54 98.2 84.8403 98.2 64.2403C98.2 43.6403 81.5 26.9403 61 26.9403C42.1 26.9403 26.7 42.3403 26.7 61.2403C26.7 80.1403 42.1 95.5403 61 95.5403C78.3 95.5403 92.3 81.5403 92.3 64.2403C92.3 46.9403 78.3 32.9403 61 32.9403C45.4 32.9403 32.7 45.6403 32.7 61.2403C32.7 76.8403 45.4 89.5403 61 89.5403C75 89.5403 86.3 78.1403 86.3 64.2403C86.3 50.3403 74.9 38.9403 61 38.9403C48.7 38.9403 38.6 48.9403 38.6 61.3403C38.6 73.6403 48.6 83.7403 61 83.7403C71.7 83.7403 80.4 75.0403 80.4 64.3403C80.4 53.6403 71.7 44.9403 61 44.9403C52 44.9403 44.6 52.3403 44.6 61.3403C44.6 70.3403 52 77.7403 61 77.7403C68.4 77.7403 74.4 71.7403 74.4 64.3403C74.4 56.9403 68.4 50.9403 61 50.9403C55.2 50.9403 50.6 55.6403 50.6 61.4403C50.6 67.2403 55.3 71.9403 61 71.9403C65.1 71.9403 68.5 68.5403 68.5 64.4403C68.5 60.3403 65.2 56.9403 61 56.9403C58.5 56.9403 56.5 58.9403 56.5 61.4403C56.5 63.9403 58.5 65.9403 61 65.9403C61.8 65.9403 62.5 65.2403 62.5 64.4403C62.5 63.6403 61.8 62.9403 61 62.9403C60.2 62.9403 59.5 62.2403 59.5 61.4403C59.5 60.6403 60.2 59.9403 61 59.9403C63.4 59.9403 65.4 61.9403 65.4 64.3403C65.4 66.7403 63.4 68.7403 61 68.7403C56.9 68.7403 53.6 65.4403 53.6 61.3403C53.6 57.2403 56.9 53.9403 61 53.9403C66.7 53.9403 71.4 58.6403 71.4 64.3403C71.4 70.0403 66.7 74.7403 61 74.7403C53.6 74.7403 47.6 68.7403 47.6 61.3403C47.6 53.9403 53.6 47.9403 61 47.9403C70 47.9403 77.4 55.2403 77.4 64.3403C77.4 73.3403 70.1 80.7403 61 80.7403C50.3 80.7403 41.7 72.0403 41.7 61.4403C41.7 50.7403 50.4 42.1403 61 42.1403C73.3 42.1403 83.3 52.1403 83.3 64.4403C83.3 76.7403 73.3 86.7403 61 86.7403C47.1 86.7403 35.7 75.4403 35.7 61.4403C35.7 47.5403 47 36.1403 61 36.1403C76.6 36.1403 89.3 48.8403 89.3 64.4403C89.3 80.0403 76.5 92.5403 61 92.5403C43.8 92.5403 29.8 78.5403 29.8 61.2403C29.8 43.9403 43.8 29.9403 61 29.9403C79.9 29.9403 95.2 45.3403 95.2 64.1403C95.2 82.9403 79.8 98.5403 61 98.5403C40.5 98.5403 23.8 81.8403 23.8 61.3403C23.8 40.8403 40.5 24.1403 61 24.1403C83.1 24.1403 101.2 42.1403 101.2 64.3403C101.2 86.5403 83.2 104.54 61 104.54C37.2 104.54 17.9 85.1403 17.9 61.3403C17.9 37.5403 37.3 18.1403 61 18.1403C86.4 18.1403 107.1 38.8403 107.1 64.3403C107.1 89.8403 86.4 110.54 61 110.54C33.9 110.54 11.9 88.5403 11.9 61.4403C11.9 34.3403 33.9 12.3403 61 12.3403C89.7 12.3403 113.1 35.7403 113.1 64.4403C113.1 93.1403 89.7 116.54 61 116.54C30.6 116.54 5.90002 91.8403 5.90002 61.4403C5.90002 31.0403 30.6 6.34027 61 6.34027C93 6.34027 119 32.3403 119 64.4403C119 96.5403 93 122.54 61 122.54C27.4 122.54 0 95.1403 0 61.5403C0 27.8403 27.4 0.540283 61 0.540283C96.3 0.540283 125 29.2403 125 64.5403C125 99.8403 96.2 128.34 61 128.34Z" fill="#0F0F0F"/>
</svg>
