<svg width="125" height="126" viewBox="0 0 125 126" fill="none" xmlns="http://www.w3.org/2000/svg">
<path d="M125 42.4402C125 19.4402 106.3 0.740234 83.3 0.740234C75.7 0.740234 68.6 2.74021 62.5 6.34021C56.4 2.84021 49.3 0.740234 41.7 0.740234C18.7 0.740234 0 19.4402 0 42.4402C0 50.0402 2.00001 57.1402 5.60001 63.2402C2.10001 69.3402 0 76.4402 0 84.0402C0 107.04 18.7 125.74 41.7 125.74C49.3 125.74 56.4 123.74 62.5 120.14C68.6 123.64 75.7 125.74 83.3 125.74C106.3 125.74 125 107.04 125 84.0402C125 76.4402 123 69.3402 119.4 63.2402C122.9 57.1402 125 50.0402 125 42.4402ZM62.4 84.1402C50.9 84.1402 41.6 74.8402 41.6 63.3402C41.6 51.8402 50.9 42.5402 62.4 42.5402C73.9 42.5402 83.2 51.8402 83.2 63.3402C83.2 74.8402 74 84.1402 62.4 84.1402Z" fill="#0F0F0F"/>
</svg>
