<svg width="125" height="126" viewBox="0 0 125 126" fill="none" xmlns="http://www.w3.org/2000/svg">
<path d="M55.6481 79.6292V107.407H44.074L62.4074 125.74L80.8333 107.407H69.2592V79.6292H55.6481Z" fill="#0F0F0F"/>
<path d="M69.2592 46.9439V19.1661H80.8333L62.5 0.740234L44.074 19.1661H55.6481V46.9439H69.2592Z" fill="#0F0F0F"/>
<path d="M69.2593 79.6291L88.8889 99.2587L80.6482 107.499H106.667V81.481L98.426 89.7217L78.7963 70.092L69.2593 79.6291Z" fill="#0F0F0F"/>
<path d="M55.6481 46.9438L36.0185 27.3142L44.2592 19.0735H18.2407V45.092L26.4815 36.8513L46.1111 56.4809L55.6481 46.9438Z" fill="#0F0F0F"/>
<path d="M78.7963 70.0921H106.574V81.6662L125 63.3329L106.574 44.907V56.4811H78.7963V70.0921Z" fill="#0F0F0F"/>
<path d="M46.1111 56.4811H18.3333V44.907L0 63.2403L18.3333 81.6662V70.0921H46.1111V56.4811Z" fill="#0F0F0F"/>
<path d="M78.7963 56.4809L98.426 36.8513L106.667 45.092V19.0735H80.6482L88.8889 27.3142L69.2593 46.9438L78.7963 56.4809Z" fill="#0F0F0F"/>
<path d="M46.1111 70.092L26.4815 89.7217L18.2407 81.481V107.499H44.2592L36.0185 99.2587L55.6481 79.6291L46.1111 70.092Z" fill="#0F0F0F"/>
</svg>
