<svg width="125" height="126" viewBox="0 0 125 126" fill="none" xmlns="http://www.w3.org/2000/svg">
<path d="M75.4397 0.340332H49.5605C45.164 0.340332 41.6668 3.83756 41.6668 8.23403V34.1133C41.6668 38.5098 45.164 42.007 49.5605 42.007H75.4397C79.8362 42.007 83.3334 38.5098 83.3334 34.1133V8.23403C83.3334 3.83756 79.7362 0.340332 75.4397 0.340332Z" fill="#0F0F0F"/>
<path d="M49.5605 125.24H75.4397C79.8362 125.24 83.3334 121.743 83.3334 117.347V91.4674C83.3334 87.0709 79.8362 83.5737 75.4397 83.5737H49.5605C45.164 83.5737 41.6668 87.0709 41.6668 91.4674V117.347C41.6668 121.643 45.264 125.24 49.5605 125.24Z" fill="#0F0F0F"/>
<path d="M83.3332 49.8007V75.68C83.3332 80.0764 86.8304 83.5736 91.2269 83.5736H117.106C121.503 83.5736 125 80.0764 125 75.68V49.8007C125 45.4042 121.503 41.907 117.106 41.907H91.2269C86.8304 41.907 83.3332 45.5041 83.3332 49.8007Z" fill="#0F0F0F"/>
<path d="M0 49.8007V75.68C0 80.0764 3.49722 83.5736 7.8937 83.5736H33.773C38.1695 83.5736 41.6667 80.0764 41.6667 75.68V49.8007C41.6667 45.4042 38.1695 41.907 33.773 41.907H7.8937C3.59714 41.907 0 45.5041 0 49.8007Z" fill="#0F0F0F"/>
</svg>
